<?xml version="1.0" encoding="utf-8"?>
<!-- Generator: Adobe Illustrator 27.5.0, SVG Export Plug-In . SVG Version: 6.00 Build 0)  -->
<svg version="1.1" id="图层_1" xmlns="http://www.w3.org/2000/svg" xmlns:xlink="http://www.w3.org/1999/xlink" x="0px" y="0px"
	 viewBox="0 0 10 10" style="enable-background:new 0 0 10 10;" xml:space="preserve">
<g id="_x23_000000ff">
	<path d="M1.3,0c0.1,0,0.3,0,0.4,0C4,0,6.2,0,8.4,0c0.4,0,0.8,0.2,1.1,0.5C9.9,0.8,10,1.2,10,1.6c0,2.3,0,4.6,0,6.9
		c0,0.4-0.2,0.9-0.5,1.1C9.2,9.9,8.8,10,8.4,10c-2.1,0-4.3,0-6.4,0c-0.3,0-0.6,0-0.9-0.1c-0.4-0.1-0.8-0.4-1-0.8C0,8.9,0,8.7,0,8.4
		c0-2.3,0-4.6,0-6.8c0-0.4,0.1-0.8,0.4-1.1C0.7,0.2,1,0.1,1.3,0 M1.4,0.9c-0.3,0-0.6,0.3-0.6,0.7c0,2.3,0,4.6,0,6.9
		c0,0.4,0.3,0.5,0.4,0.6c0.2,0.1,0.2,0,0.5,0c0.2,0,4.5,0,6.7,0c0.1,0,0.2,0,0.4-0.1C8.9,9,9.2,8.8,9.2,8.5c0-2.3,0-4.6,0-6.9
		c0-0.2-0.1-0.5-0.3-0.6C8.8,0.9,8.6,0.9,8.4,0.9c-2.2,0-4.5,0-6.7,0C1.6,0.9,1.6,0.9,1.4,0.9z"/>
</g>
</svg>
