<?xml version="1.0" encoding="utf-8"?>
<!-- Generator: Adobe Illustrator 27.5.0, SVG Export Plug-In . SVG Version: 6.00 Build 0)  -->
<svg version="1.1" id="图层_1" xmlns="http://www.w3.org/2000/svg" xmlns:xlink="http://www.w3.org/1999/xlink" x="0px" y="0px"
	 viewBox="0 0 10 10" style="enable-background:new 0 0 10 10;" xml:space="preserve">
<g id="_x23_000000ff">
	<path d="M2,1.5C2.1,0.7,2.8,0,3.6,0C5,0,6.4,0,7.8,0C9,0.1,10,1.1,10,2.3c0,1.4,0,2.8,0,4.1C10,7.2,9.3,7.9,8.5,8
		c0-0.3,0-0.5,0-0.8c0.4,0,0.8-0.4,0.7-0.9c0-1.3,0-2.6,0-3.9c0.1-0.9-0.7-1.7-1.5-1.7c-1.4,0-2.7,0-4.1,0c-0.4,0-0.8,0.3-0.9,0.7
		C2.5,1.5,2.3,1.5,2,1.5z"/>
	<path d="M1.5,2c1.7,0,3.3,0,5,0C7.2,2,8,2.7,8,3.6c0,1.6,0,3.3,0,4.9C8,9.3,7.2,10,6.4,10c-1.6,0-3.2,0-4.8,0C0.7,10,0,9.3,0,8.4
		c0-1.6,0-3.1,0-4.7C-0.1,2.9,0.6,2.1,1.5,2 M1.5,2.8C1,2.8,0.7,3.3,0.8,3.8c0,1.5,0,3.1,0,4.6c0,0.5,0.4,0.9,0.9,0.9
		c1.5,0,3.1,0,4.6,0c0.5,0.1,1-0.3,1-0.9c0-1.6,0-3.2,0-4.8c0-0.5-0.5-0.9-1-0.8C4.7,2.8,3.1,2.7,1.5,2.8z"/>
</g>
</svg>
