<svg t="1690473156649" class="icon" viewBox="0 0 1024 1024" version="1.1" xmlns="http://www.w3.org/2000/svg" p-id="8961" width="32" height="32" xmlns:xlink="http://www.w3.org/1999/xlink"><path d="M928.229 848.185c0 26.515-21.512 48.026-48.026 48.026L143.798 896.211c-26.515 0-48.026-21.512-48.026-48.026L95.772 688.097c0-26.515 21.512-48.026 48.026-48.026l232.628 0 67.537 68.037c18.51 18.01 42.523 28.016 68.037 28.016 25.514 0 49.527-10.006 68.037-28.016l68.037-68.037 232.128 0c26.515 0 48.026 21.512 48.026 48.026L928.228 848.185zM758.636 438.459 534.512 662.583c-6.002 6.503-14.508 9.505-22.512 9.505-8.004 0-16.509-3.002-22.512-9.505L265.365 438.459c-9.505-9.005-12.007-23.013-7.004-35.019 5.002-11.506 16.509-19.511 29.516-19.511l128.07 0L415.947 159.807c0-17.51 14.508-32.018 32.018-32.018l128.07 0c17.51 0 32.018 14.508 32.018 32.018L608.053 383.93l128.07 0c13.007 0 24.514 8.004 29.517 19.511C770.642 415.447 768.141 429.455 758.636 438.459zM704.105 768.141c-17.51 0-32.018 14.508-32.018 32.018s14.508 32.018 32.018 32.018 32.018-14.508 32.018-32.018S721.615 768.141 704.105 768.141zM832.176 768.141c-17.51 0-32.018 14.508-32.018 32.018s14.508 32.018 32.018 32.018 32.018-14.508 32.018-32.018S849.686 768.141 832.176 768.141z" p-id="8962" data-spm-anchor-id="a313x.7781069.0.i0" class="selected" fill="#ffc000"></path></svg>